<svg xmlns="http://www.w3.org/2000/svg" viewBox="0 0 900 220" width="900" height="220" aria-labelledby="title desc">
  <title id="title">Let's Connect Banner</title>
  <desc id="desc">Fun pink banner with bubbly text and modern social icons</desc>
  <defs>
    <linearGradient id="bg" x1="0" x2="1">
      <stop offset="0%" stop-color="#ffeef6"/>
      <stop offset="70%" stop-color="#ffd7ef"/>
      <stop offset="100%" stop-color="#fff"/>
    </linearGradient>
    <linearGradient id="gold" x1="0" x2="1">
      <stop offset="0%" stop-color="#f7c873"/>
      <stop offset="100%" stop-color="#ffd67a"/>
    </linearGradient>
  </defs>
  <rect x="0" y="0" width="900" height="220" rx="38" fill="url(#bg)" stroke="#ff6fa3" stroke-width="5"/>
  <text x="60" y="90" font-size="56" font-family="'Pacifico', cursive, 'Arial Black', sans-serif" fill="#ff6fa3" font-weight="bold">Let's</text>
  <text x="250" y="92" font-size="54" font-family="'Arial Black', 'Montserrat', sans-serif" fill="#3a1f2b" font-weight="bold">Connect!</text>
  <text x="62" y="130" font-size="22" font-family="'Montserrat', 'Segoe UI', sans-serif" fill="#4f2f3f" opacity="0.95">Say hi, collab, chat about data, or just wave 👋</text>
  <rect x="680" y="26" width="160" height="40" rx="20" fill="url(#gold)" stroke="#f7c873" stroke-width="2"/>
  <text x="720" y="56" font-size="22" font-family="'Montserrat', sans-serif" fill="#5a3200" font-weight="bold">Now Live!</text>
  <g>
    <rect x="120" y="150" width="44" height="44" rx="12" fill="#fff" stroke="#ff84b6" stroke-width="1.5"/>
    <path d="M126 162 L142 174 L158 162" stroke="#ff6fa3" stroke-width="2" fill="none"/>
    <rect x="126" y="158" width="32" height="18" rx="3" stroke="#ff6fa3" stroke-width="1.2" fill="none"/>
    <rect x="180" y="150" width="44" height="44" rx="12" fill="#fff" stroke="#ff84b6" stroke-width="1.5"/>
    <path d="M192 164c9 2 15-6 17-12-7 4-16 7-25 9 6-7 0-13-8-13-7 0-13 6-13 13 0 1 0 2 .1 3-9-.5-17-6-22-14-.3 1-.5 3-.5 4 0 5 2 10 7 12-2 0-4-1-5-2v.1c0 7 6 13 14 14-2 .4-5 .1-7 .1-1 0-3 0-4-.2 3 7 13 10 23 10-9 7-19 10-31 10-.2 0-.3 0-.5 0 11 7 23 12 36 12 43 0 67-34 67-65v-3c5-3 10-9 14-14-7 3-13 6-20 6z" stroke="#ff6fa3" stroke-width="1.2" fill="none"/>
    <rect x="240" y="150" width="44" height="44" rx="12" fill="#fff" stroke="#ff84b6" stroke-width="1.5"/>
    <rect x="244" y="158" width="36" height="28" rx="3" stroke="#ff6fa3" stroke-width="1.2" fill="none"/>
    <circle cx="262" cy="167" r="7" stroke="#ff6fa3" stroke-width="1.2" fill="none"/>
    <rect x="260" y="178" width="4" height="14" rx="1" fill="#ff6fa3"/>
    <rect x="270" y="178" width="4" height="14" rx="1" fill="#ff6fa3"/>
  </g>
  <circle cx="70" cy="40" r="8" fill="#ffb2d9" opacity="0.7"/>
  <circle cx="860" cy="70" r="8" fill="#ffd7ef" opacity="0.7"/>
  <circle cx="730" cy="200" r="7" fill="#ff6fa3" opacity="0.6"/>
  <circle cx="180" cy="60" r="6" fill="#f7c873" opacity="0.7"/>
  <rect x="370" y="150" width="240" height="44" rx="22" fill="url(#gold)" stroke="#ffd67a" stroke-width="1.5"/>
  <text x="395" y="180" font-size="22" font-family="'Montserrat', sans-serif" fill="#4b2a00" font-weight="bold">Book a quick chat!</text>
  <text x="400" y="203" font-size="15" font-family="'Montserrat', sans-serif" fill="#4b2a00" opacity="0.7">15–30 min | friendly & informal</text>
</svg>