<svg xmlns="http://www.w3.org/2000/svg" viewBox="0 0 1100 300" width="1100" height="300" aria-labelledby="title desc">
  <title id="title">Let's Connect — Live Banner</title>
  <desc id="desc">Girly pink and gold bubble banner with live badge and social icons</desc>
  <defs>
    <linearGradient id="bgPink" x1="0" x2="1">
      <stop offset="0%" stop-color="#ffeef6"/>
      <stop offset="100%" stop-color="#fff"/>
    </linearGradient>
    <linearGradient id="goldGrad" x1="0" x2="1">
      <stop offset="0%" stop-color="#f7c873"/>
      <stop offset="100%" stop-color="#ffd67a"/>
    </linearGradient>
    <radialGradient id="sparkle" cx="50%" cy="50%" r="80%" fx="25%" fy="25%">
      <stop offset="0%" stop-color="#fff7e9" stop-opacity="0.5"/>
      <stop offset="100%" stop-color="#ffd67a" stop-opacity="0"/>
    </radialGradient>
  </defs>
  <rect x="0" y="0" width="1100" height="300" rx="22" fill="url(#bgPink)" stroke="#ff6fa3" stroke-width="5"/>
  
  <!-- Left main headline -->
  <text x="60" y="110" font-size="70" font-family="'Pacifico', cursive, 'Arial Black', sans-serif" fill="#ff6fa3" font-weight="900">Let's</text>
  <text x="260" y="110" font-size="58" font-family="'Arial Black', 'Montserrat', sans-serif" fill="#3a1f2b" font-weight="900">Connect</text>
  <text x="62" y="146" font-size="22" font-family="'Montserrat', 'Segoe UI', sans-serif" fill="#4f2f3f" opacity="0.95">Come say hi — collabs, data chats, or a quick hello 👋</text>
  
  <!-- Live badge (static) -->
  <g>
    <rect x="438" y="71" width="110" height="36" rx="18" fill="url(#goldGrad)" stroke="#f7c873" stroke-width="2"/>
    <circle cx="458" cy="89" r="11" fill="#ff4a6a" opacity="0.85"/>
    <text x="482" y="96" font-size="22" font-family="'Montserrat', sans-serif" fill="#311a1f" font-weight="700">LIVE</text>
  </g>

  <!-- Social icons -->
  <g>
    <!-- Email -->
    <rect x="70" y="170" width="44" height="44" rx="10" fill="url(#bgPink)" stroke="#ff6fa3" stroke-width="1.2"/>
    <path d="M75 182 L92 194 L109 182" stroke="#ff6fa3" stroke-width="2" fill="none"/>
    <rect x="75" y="178" width="34" height="22" rx="4" stroke="#ff6fa3" stroke-width="1.2" fill="none"/>
    <!-- Twitter -->
    <rect x="126" y="170" width="44" height="44" rx="10" fill="url(#bgPink)" stroke="#ff6fa3" stroke-width="1.2"/>
    <path d="M136 184c8 2 14-5 16-11-7 4-15 7-24 9 5-6 0-12-7-12-7 0-13 6-13 13 0 1 0 2 .1 3-9-.5-17-5-22-13-.4 1-.5 3-.5 4 0 5 2 9 6 11-2 0-4-1-5-2v.1c0 7 5 13 13 14-2 .4-5 .1-7 .1-1 0-3 0-4-.2 3 6 12 10 22 10-8 6-18 9-29 9-.2 0-.3 0-.5 0 10 7 21 11 34 11 41 0 64-33 64-62v-3c5-3 10-8 14-13-6 3-12 5-19 6z" stroke="#ff6fa3" stroke-width="1.2" fill="none"/>
    <!-- LinkedIn -->
    <rect x="182" y="170" width="44" height="44" rx="10" fill="url(#bgPink)" stroke="#ff6fa3" stroke-width="1.2"/>
    <rect x="186" y="176" width="36" height="32" rx="4" stroke="#ff6fa3" stroke-width="1.2" fill="none"/>
    <circle cx="204" cy="185" r="7" stroke="#ff6fa3" stroke-width="1.2" fill="none"/>
    <rect x="202" y="198" width="4" height="14" rx="1" fill="#ff6fa3"/>
    <rect x="212" y="198" width="4" height="14" rx="1" fill="#ff6fa3"/>
  </g>
  
  <!-- Gold plate for chat booking -->
  <g>
    <rect x="270" y="170" width="220" height="64" rx="14" fill="url(#goldGrad)" stroke="#ffd67a" stroke-width="1.5"/>
    <text x="290" y="197" font-size="22" font-family="'Montserrat', sans-serif" fill="#4b2a00" font-weight="800">Book a quick chat</text>
    <text x="290" y="222" font-size="15" font-family="'Montserrat', sans-serif" fill="#4b2a00" opacity="0.8">15–30 min | friendly & informal</text>
  </g>
  <!-- Sparkle accent -->
  <ellipse cx="380" cy="200" rx="90" ry="20" fill="url(#sparkle)" opacity="0.5"/>
  
  <!-- Right side live chat box -->
  <g>
    <rect x="680" y="65" width="360" height="170" rx="16" fill="url(#bgPink)" stroke="#ffd67a" stroke-width="2"/>
    <text x="820" y="110" font-size="28" font-family="'Montserrat', sans-serif" fill="#4b2a00" font-weight="800">Live now</text>
    <text x="740" y="156" font-size="54" font-family="'Arial Black', 'Montserrat', sans-serif" fill="#ff6fa3" font-weight="900" letter-spacing="3">LET'S CHAT</text>
    <rect x="870" y="170" width="90" height="28" rx="14" fill="#fff" opacity="0.7"/>
    <text x="890" y="190" font-size="18" font-family="'Montserrat', sans-serif" fill="#f7c873" font-weight="700">LIVE</text>
    <circle cx="880" cy="184" r="11" fill="#ff4a6a" opacity="0.85"/>
  </g>
</svg>